<mxfile host="app.diagrams.net" agent="Mozilla/5.0 (Windows NT 10.0; Win64; x64) AppleWebKit/537.36 (KHTML, like Gecko) Chrome/130.0.0.0 Safari/537.36" version="24.8.3">
  <diagram name="Page-1" id="7yY_kA9gd9Qw0ZEYXvrO">
    <mxGraphModel dx="2345" dy="949" grid="1" gridSize="10" guides="1" tooltips="1" connect="1" arrows="1" fold="1" page="1" pageScale="1" pageWidth="850" pageHeight="1100" math="0" shadow="0">
      <root>
        <mxCell id="0" />
        <mxCell id="1" parent="0" />
        <mxCell id="ie0-aMVQ24yn6wTCqgOi-3" value="&lt;b&gt;Screen&lt;/b&gt;" style="rounded=1;arcSize=10;whiteSpace=wrap;html=1;align=center;" vertex="1" parent="1">
          <mxGeometry x="660" y="240" width="100" height="40" as="geometry" />
        </mxCell>
        <mxCell id="ie0-aMVQ24yn6wTCqgOi-4" value="&lt;b&gt;Ticket&lt;/b&gt;" style="rounded=1;arcSize=10;whiteSpace=wrap;html=1;align=center;" vertex="1" parent="1">
          <mxGeometry x="70" y="500" width="100" height="40" as="geometry" />
        </mxCell>
        <mxCell id="ie0-aMVQ24yn6wTCqgOi-5" value="&lt;b&gt;Customer&lt;/b&gt;" style="rounded=1;arcSize=10;whiteSpace=wrap;html=1;align=center;" vertex="1" parent="1">
          <mxGeometry x="660" y="500" width="100" height="40" as="geometry" />
        </mxCell>
        <mxCell id="ie0-aMVQ24yn6wTCqgOi-12" value="Screen_ID" style="ellipse;whiteSpace=wrap;html=1;align=center;fontStyle=4;" vertex="1" parent="1">
          <mxGeometry x="680" y="150" width="70" height="40" as="geometry" />
        </mxCell>
        <mxCell id="ie0-aMVQ24yn6wTCqgOi-13" value="Screen_num" style="ellipse;whiteSpace=wrap;html=1;align=center;" vertex="1" parent="1">
          <mxGeometry x="760" y="160" width="70" height="40" as="geometry" />
        </mxCell>
        <mxCell id="ie0-aMVQ24yn6wTCqgOi-25" value="Seat_Capacity" style="ellipse;whiteSpace=wrap;html=1;align=center;" vertex="1" parent="1">
          <mxGeometry x="580" y="160" width="80" height="40" as="geometry" />
        </mxCell>
        <mxCell id="ie0-aMVQ24yn6wTCqgOi-28" value="" style="endArrow=none;html=1;rounded=0;exitX=0.5;exitY=1;exitDx=0;exitDy=0;entryX=0.5;entryY=0;entryDx=0;entryDy=0;" edge="1" parent="1" source="ie0-aMVQ24yn6wTCqgOi-12" target="ie0-aMVQ24yn6wTCqgOi-3">
          <mxGeometry relative="1" as="geometry">
            <mxPoint x="410" y="320" as="sourcePoint" />
            <mxPoint x="570" y="320" as="targetPoint" />
          </mxGeometry>
        </mxCell>
        <mxCell id="ie0-aMVQ24yn6wTCqgOi-32" value="" style="endArrow=none;html=1;rounded=0;entryX=0.5;entryY=1;entryDx=0;entryDy=0;exitX=1;exitY=0;exitDx=0;exitDy=0;" edge="1" parent="1" source="ie0-aMVQ24yn6wTCqgOi-3" target="ie0-aMVQ24yn6wTCqgOi-13">
          <mxGeometry relative="1" as="geometry">
            <mxPoint x="740" y="240" as="sourcePoint" />
            <mxPoint x="570" y="320" as="targetPoint" />
          </mxGeometry>
        </mxCell>
        <mxCell id="ie0-aMVQ24yn6wTCqgOi-33" value="" style="endArrow=none;html=1;rounded=0;exitX=0.5;exitY=1;exitDx=0;exitDy=0;entryX=0;entryY=0;entryDx=0;entryDy=0;" edge="1" parent="1" source="ie0-aMVQ24yn6wTCqgOi-25" target="ie0-aMVQ24yn6wTCqgOi-3">
          <mxGeometry relative="1" as="geometry">
            <mxPoint x="410" y="320" as="sourcePoint" />
            <mxPoint x="570" y="320" as="targetPoint" />
          </mxGeometry>
        </mxCell>
        <mxCell id="ie0-aMVQ24yn6wTCqgOi-49" value="Show_ID" style="ellipse;whiteSpace=wrap;html=1;align=center;fontStyle=4;" vertex="1" parent="1">
          <mxGeometry x="675" y="570" width="70" height="40" as="geometry" />
        </mxCell>
        <mxCell id="ie0-aMVQ24yn6wTCqgOi-95" value="&lt;b&gt;Movie&lt;/b&gt;" style="rounded=1;arcSize=10;whiteSpace=wrap;html=1;align=center;" vertex="1" parent="1">
          <mxGeometry x="130" y="240" width="100" height="40" as="geometry" />
        </mxCell>
        <mxCell id="ie0-aMVQ24yn6wTCqgOi-96" value="Duration" style="ellipse;whiteSpace=wrap;html=1;align=center;" vertex="1" parent="1">
          <mxGeometry x="230" y="170" width="70" height="40" as="geometry" />
        </mxCell>
        <mxCell id="ie0-aMVQ24yn6wTCqgOi-97" value="Rating" style="ellipse;whiteSpace=wrap;html=1;align=center;" vertex="1" parent="1">
          <mxGeometry x="60" y="170" width="70" height="40" as="geometry" />
        </mxCell>
        <mxCell id="ie0-aMVQ24yn6wTCqgOi-98" value="Movie_ID" style="ellipse;whiteSpace=wrap;html=1;align=center;fontStyle=4;" vertex="1" parent="1">
          <mxGeometry x="140" y="160" width="70" height="40" as="geometry" />
        </mxCell>
        <mxCell id="ie0-aMVQ24yn6wTCqgOi-99" value="Title" style="ellipse;whiteSpace=wrap;html=1;align=center;" vertex="1" parent="1">
          <mxGeometry y="220" width="75" height="40" as="geometry" />
        </mxCell>
        <mxCell id="ie0-aMVQ24yn6wTCqgOi-100" value="Genre" style="ellipse;whiteSpace=wrap;html=1;align=center;" vertex="1" parent="1">
          <mxGeometry x="10" y="270" width="70" height="40" as="geometry" />
        </mxCell>
        <mxCell id="ie0-aMVQ24yn6wTCqgOi-101" value="" style="endArrow=none;html=1;rounded=0;exitX=0.5;exitY=1;exitDx=0;exitDy=0;entryX=0.5;entryY=0;entryDx=0;entryDy=0;" edge="1" parent="1" source="ie0-aMVQ24yn6wTCqgOi-98" target="ie0-aMVQ24yn6wTCqgOi-95">
          <mxGeometry relative="1" as="geometry">
            <mxPoint x="310" y="330" as="sourcePoint" />
            <mxPoint x="470" y="330" as="targetPoint" />
          </mxGeometry>
        </mxCell>
        <mxCell id="ie0-aMVQ24yn6wTCqgOi-102" value="" style="endArrow=none;html=1;rounded=0;exitX=0;exitY=1;exitDx=0;exitDy=0;entryX=0.75;entryY=0;entryDx=0;entryDy=0;" edge="1" parent="1" source="ie0-aMVQ24yn6wTCqgOi-96" target="ie0-aMVQ24yn6wTCqgOi-95">
          <mxGeometry relative="1" as="geometry">
            <mxPoint x="310" y="330" as="sourcePoint" />
            <mxPoint x="470" y="330" as="targetPoint" />
          </mxGeometry>
        </mxCell>
        <mxCell id="ie0-aMVQ24yn6wTCqgOi-103" value="" style="endArrow=none;html=1;rounded=0;exitX=1;exitY=0.5;exitDx=0;exitDy=0;entryX=0;entryY=1;entryDx=0;entryDy=0;" edge="1" parent="1" source="ie0-aMVQ24yn6wTCqgOi-100" target="ie0-aMVQ24yn6wTCqgOi-95">
          <mxGeometry relative="1" as="geometry">
            <mxPoint x="310" y="330" as="sourcePoint" />
            <mxPoint x="470" y="330" as="targetPoint" />
          </mxGeometry>
        </mxCell>
        <mxCell id="ie0-aMVQ24yn6wTCqgOi-104" value="" style="endArrow=none;html=1;rounded=0;exitX=1;exitY=0.5;exitDx=0;exitDy=0;entryX=0;entryY=0.25;entryDx=0;entryDy=0;" edge="1" parent="1" source="ie0-aMVQ24yn6wTCqgOi-99" target="ie0-aMVQ24yn6wTCqgOi-95">
          <mxGeometry relative="1" as="geometry">
            <mxPoint x="310" y="330" as="sourcePoint" />
            <mxPoint x="470" y="330" as="targetPoint" />
          </mxGeometry>
        </mxCell>
        <mxCell id="ie0-aMVQ24yn6wTCqgOi-105" value="" style="endArrow=none;html=1;rounded=0;exitX=1;exitY=1;exitDx=0;exitDy=0;entryX=0.25;entryY=0;entryDx=0;entryDy=0;" edge="1" parent="1" source="ie0-aMVQ24yn6wTCqgOi-97" target="ie0-aMVQ24yn6wTCqgOi-95">
          <mxGeometry relative="1" as="geometry">
            <mxPoint x="310" y="330" as="sourcePoint" />
            <mxPoint x="470" y="330" as="targetPoint" />
          </mxGeometry>
        </mxCell>
        <mxCell id="ie0-aMVQ24yn6wTCqgOi-128" value="&lt;b&gt;Show&lt;/b&gt;" style="rounded=1;arcSize=10;whiteSpace=wrap;html=1;align=center;" vertex="1" parent="1">
          <mxGeometry x="360" y="640" width="100" height="40" as="geometry" />
        </mxCell>
        <mxCell id="ie0-aMVQ24yn6wTCqgOi-129" value="Show_ID" style="ellipse;whiteSpace=wrap;html=1;align=center;fontStyle=4;" vertex="1" parent="1">
          <mxGeometry x="375" y="740" width="70" height="40" as="geometry" />
        </mxCell>
        <mxCell id="ie0-aMVQ24yn6wTCqgOi-130" value="Movie_ID" style="ellipse;whiteSpace=wrap;html=1;align=center;" vertex="1" parent="1">
          <mxGeometry x="460" y="730" width="70" height="40" as="geometry" />
        </mxCell>
        <mxCell id="ie0-aMVQ24yn6wTCqgOi-131" value="Date" style="ellipse;whiteSpace=wrap;html=1;align=center;" vertex="1" parent="1">
          <mxGeometry x="290" y="730" width="70" height="40" as="geometry" />
        </mxCell>
        <mxCell id="ie0-aMVQ24yn6wTCqgOi-132" value="Screen_ID" style="ellipse;whiteSpace=wrap;html=1;align=center;" vertex="1" parent="1">
          <mxGeometry x="510" y="680" width="70" height="40" as="geometry" />
        </mxCell>
        <mxCell id="ie0-aMVQ24yn6wTCqgOi-133" value="Start_time" style="ellipse;whiteSpace=wrap;html=1;align=center;" vertex="1" parent="1">
          <mxGeometry x="250" y="680" width="70" height="40" as="geometry" />
        </mxCell>
        <mxCell id="ie0-aMVQ24yn6wTCqgOi-134" value="" style="endArrow=none;html=1;rounded=0;exitX=1;exitY=0.5;exitDx=0;exitDy=0;entryX=0;entryY=1;entryDx=0;entryDy=0;" edge="1" parent="1" source="ie0-aMVQ24yn6wTCqgOi-133" target="ie0-aMVQ24yn6wTCqgOi-128">
          <mxGeometry relative="1" as="geometry">
            <mxPoint x="360" y="710" as="sourcePoint" />
            <mxPoint x="520" y="710" as="targetPoint" />
          </mxGeometry>
        </mxCell>
        <mxCell id="ie0-aMVQ24yn6wTCqgOi-135" value="" style="endArrow=none;html=1;rounded=0;exitX=0;exitY=0.5;exitDx=0;exitDy=0;entryX=1;entryY=1;entryDx=0;entryDy=0;" edge="1" parent="1" source="ie0-aMVQ24yn6wTCqgOi-132" target="ie0-aMVQ24yn6wTCqgOi-128">
          <mxGeometry relative="1" as="geometry">
            <mxPoint x="360" y="710" as="sourcePoint" />
            <mxPoint x="520" y="710" as="targetPoint" />
          </mxGeometry>
        </mxCell>
        <mxCell id="ie0-aMVQ24yn6wTCqgOi-136" value="" style="endArrow=none;html=1;rounded=0;exitX=0.75;exitY=1;exitDx=0;exitDy=0;entryX=0;entryY=0;entryDx=0;entryDy=0;" edge="1" parent="1" source="ie0-aMVQ24yn6wTCqgOi-128" target="ie0-aMVQ24yn6wTCqgOi-130">
          <mxGeometry relative="1" as="geometry">
            <mxPoint x="360" y="710" as="sourcePoint" />
            <mxPoint x="520" y="710" as="targetPoint" />
          </mxGeometry>
        </mxCell>
        <mxCell id="ie0-aMVQ24yn6wTCqgOi-137" value="" style="endArrow=none;html=1;rounded=0;exitX=1;exitY=0;exitDx=0;exitDy=0;entryX=0.25;entryY=1;entryDx=0;entryDy=0;" edge="1" parent="1" source="ie0-aMVQ24yn6wTCqgOi-131" target="ie0-aMVQ24yn6wTCqgOi-128">
          <mxGeometry relative="1" as="geometry">
            <mxPoint x="360" y="710" as="sourcePoint" />
            <mxPoint x="520" y="710" as="targetPoint" />
          </mxGeometry>
        </mxCell>
        <mxCell id="ie0-aMVQ24yn6wTCqgOi-138" value="" style="endArrow=none;html=1;rounded=0;exitX=0.5;exitY=1;exitDx=0;exitDy=0;entryX=0.5;entryY=0;entryDx=0;entryDy=0;" edge="1" parent="1" source="ie0-aMVQ24yn6wTCqgOi-128" target="ie0-aMVQ24yn6wTCqgOi-129">
          <mxGeometry relative="1" as="geometry">
            <mxPoint x="360" y="710" as="sourcePoint" />
            <mxPoint x="520" y="710" as="targetPoint" />
          </mxGeometry>
        </mxCell>
        <mxCell id="ie0-aMVQ24yn6wTCqgOi-139" value="Name" style="ellipse;whiteSpace=wrap;html=1;align=center;" vertex="1" parent="1">
          <mxGeometry x="770" y="570" width="70" height="40" as="geometry" />
        </mxCell>
        <mxCell id="ie0-aMVQ24yn6wTCqgOi-140" style="edgeStyle=orthogonalEdgeStyle;rounded=0;orthogonalLoop=1;jettySize=auto;html=1;exitX=0.5;exitY=1;exitDx=0;exitDy=0;" edge="1" parent="1" source="ie0-aMVQ24yn6wTCqgOi-5" target="ie0-aMVQ24yn6wTCqgOi-5">
          <mxGeometry relative="1" as="geometry" />
        </mxCell>
        <mxCell id="ie0-aMVQ24yn6wTCqgOi-141" value="" style="endArrow=none;html=1;rounded=0;entryX=0.5;entryY=0;entryDx=0;entryDy=0;exitX=0.5;exitY=1;exitDx=0;exitDy=0;" edge="1" parent="1" source="ie0-aMVQ24yn6wTCqgOi-5" target="ie0-aMVQ24yn6wTCqgOi-49">
          <mxGeometry relative="1" as="geometry">
            <mxPoint x="700" y="550" as="sourcePoint" />
            <mxPoint x="717" y="606" as="targetPoint" />
          </mxGeometry>
        </mxCell>
        <mxCell id="ie0-aMVQ24yn6wTCqgOi-142" value="" style="endArrow=none;html=1;rounded=0;exitX=1;exitY=1;exitDx=0;exitDy=0;entryX=0;entryY=0;entryDx=0;entryDy=0;" edge="1" parent="1" source="ie0-aMVQ24yn6wTCqgOi-5" target="ie0-aMVQ24yn6wTCqgOi-139">
          <mxGeometry relative="1" as="geometry">
            <mxPoint x="780" y="540" as="sourcePoint" />
            <mxPoint x="817" y="596" as="targetPoint" />
          </mxGeometry>
        </mxCell>
        <mxCell id="ie0-aMVQ24yn6wTCqgOi-143" value="Ticket_ID" style="ellipse;whiteSpace=wrap;html=1;align=center;fontStyle=4;" vertex="1" parent="1">
          <mxGeometry x="85" y="580" width="70" height="40" as="geometry" />
        </mxCell>
        <mxCell id="ie0-aMVQ24yn6wTCqgOi-144" value="Show_ID" style="ellipse;whiteSpace=wrap;html=1;align=center;" vertex="1" parent="1">
          <mxGeometry x="5" y="560" width="70" height="40" as="geometry" />
        </mxCell>
        <mxCell id="ie0-aMVQ24yn6wTCqgOi-145" value="Seat_num" style="ellipse;whiteSpace=wrap;html=1;align=center;" vertex="1" parent="1">
          <mxGeometry x="170" y="560" width="70" height="40" as="geometry" />
        </mxCell>
        <mxCell id="ie0-aMVQ24yn6wTCqgOi-146" value="Price" style="ellipse;whiteSpace=wrap;html=1;align=center;" vertex="1" parent="1">
          <mxGeometry x="10" y="440" width="70" height="40" as="geometry" />
        </mxCell>
        <mxCell id="ie0-aMVQ24yn6wTCqgOi-147" value="" style="endArrow=none;html=1;rounded=0;entryX=0.5;entryY=0;entryDx=0;entryDy=0;exitX=1;exitY=1;exitDx=0;exitDy=0;" edge="1" parent="1" source="ie0-aMVQ24yn6wTCqgOi-4" target="ie0-aMVQ24yn6wTCqgOi-145">
          <mxGeometry relative="1" as="geometry">
            <mxPoint x="40" y="530" as="sourcePoint" />
            <mxPoint x="200" y="530" as="targetPoint" />
          </mxGeometry>
        </mxCell>
        <mxCell id="ie0-aMVQ24yn6wTCqgOi-148" value="" style="endArrow=none;html=1;rounded=0;exitX=0.572;exitY=0.007;exitDx=0;exitDy=0;exitPerimeter=0;entryX=0;entryY=1;entryDx=0;entryDy=0;" edge="1" parent="1" source="ie0-aMVQ24yn6wTCqgOi-144" target="ie0-aMVQ24yn6wTCqgOi-4">
          <mxGeometry relative="1" as="geometry">
            <mxPoint x="40" y="530" as="sourcePoint" />
            <mxPoint x="200" y="530" as="targetPoint" />
          </mxGeometry>
        </mxCell>
        <mxCell id="ie0-aMVQ24yn6wTCqgOi-149" value="" style="endArrow=none;html=1;rounded=0;exitX=0.5;exitY=1;exitDx=0;exitDy=0;entryX=0;entryY=0;entryDx=0;entryDy=0;" edge="1" parent="1" source="ie0-aMVQ24yn6wTCqgOi-146" target="ie0-aMVQ24yn6wTCqgOi-4">
          <mxGeometry relative="1" as="geometry">
            <mxPoint x="40" y="530" as="sourcePoint" />
            <mxPoint x="200" y="530" as="targetPoint" />
          </mxGeometry>
        </mxCell>
        <mxCell id="ie0-aMVQ24yn6wTCqgOi-150" value="" style="endArrow=none;html=1;rounded=0;exitX=0.5;exitY=0;exitDx=0;exitDy=0;entryX=0.5;entryY=1;entryDx=0;entryDy=0;" edge="1" parent="1" source="ie0-aMVQ24yn6wTCqgOi-143" target="ie0-aMVQ24yn6wTCqgOi-4">
          <mxGeometry relative="1" as="geometry">
            <mxPoint x="40" y="530" as="sourcePoint" />
            <mxPoint x="200" y="530" as="targetPoint" />
          </mxGeometry>
        </mxCell>
      </root>
    </mxGraphModel>
  </diagram>
</mxfile>
